<svg xmlns="http://www.w3.org/2000/svg" width="21.228" height="20.334" viewBox="0 0 21.228 20.334">
  <g id="layer1" transform="translate(-260.887 -461.167)">
    <g id="g3867" transform="translate(260.887 461.167)">
      <path id="path2985" d="M17.106,19.746l-6.511-3.28L4.2,19.97l1.107-7.206L0,7.766,7.2,6.593,10.308,0l3.34,6.481L20.88,7.4l-5.132,5.179Z" transform="translate(0.351 0) rotate(1.007)" fill="#fc0"/>
      <path id="path3836" d="M352.613,451.38l-3.3,4.5,10.474-3.43Z" transform="translate(-338.708 -444.702)" fill="#ffe680"/>
      <path id="path3838" d="M295.7,492.31v5.585l-6.519,3.346Z" transform="translate(-285.044 -481.231)" fill="#fd5"/>
      <path id="path3840" d="M349.81,492.31l6.41,8.761-1.2-7.095Z" transform="translate(-339.155 -481.231)" fill="#fd5"/>
      <path id="path3842" d="M253.1,452.534l10.4,3.327-3.213-4.391Z" transform="translate(-252.843 -444.782)" fill="#ffe680"/>
      <path id="path3844" d="M349.81,401.973V391.09l3.207,6.49Z" transform="translate(-339.155 -390.894)" fill="#fd5"/>
      <path id="path3846" d="M289.8,501.15,291.011,494l5.242-1.686Z" transform="translate(-285.597 -481.231)" fill="#ffd42a"/>
    </g>
  </g>
</svg>
