<?xml version="1.0" encoding="utf-8"?>
<svg version="1.1" xmlns="http://www.w3.org/2000/svg" xmlns:xlink="http://www.w3.org/1999/xlink" x="0px" y="0px" viewBox="0 0 1000 1000" xml:space="preserve">
<style type="text/css">
	.st0{fill:#44C8F5;}
	.st1{fill:#FFFFFF;}
	.st2{fill-rule:evenodd;clip-rule:evenodd;fill:#44C8F5;}
</style>
<g>
	<g>
		<g>
			<g>
				<path class="st0" d="M144.16,824.29l-43.59-126h28.94l26.74,94.14l24.54-84.61c1.47-6.35,5.61-9.52,12.46-9.52h18.68
					l-42.86,126h-24.91L144.16,824.29z"/>
				<path class="st0" d="M215.28,698.29h13.18c3.42,0,6.35,1.23,8.79,3.66c2.44,2.45,3.66,5.38,3.66,8.79v7.69h-25.64v-20.15
					L215.28,698.29z M215.28,726.86h13.18c3.42,0,6.35,1.22,8.79,3.66c2.44,2.45,3.66,5.37,3.66,8.79v84.98h-25.64v-97.43
					L215.28,726.86z"/>
				<path class="st0" d="M246.72,698.29h13.19c3.42,0,6.35,1.16,8.79,3.48s3.66,5.19,3.66,8.61V824.3h-25.64L246.72,698.29
					L246.72,698.29z"/>
				<path class="st0" d="M279.69,698.29h13.19c3.42,0,6.35,1.16,8.79,3.48s3.66,5.19,3.66,8.61V824.3h-25.64V698.29L279.69,698.29z
					"/>
				<path class="st0" d="M373.27,820.26c-5.13,2.69-10.56,4.33-16.3,4.94s-10.8,0.92-15.2,0.92c-8.79,0-16.48-2.38-23.08-7.14
					c-6.59-4.76-9.89-12.64-9.89-23.63c0-10.26,2.99-17.58,8.97-21.98c5.98-4.4,13.61-7.33,22.89-8.79c1.22,0,2.69-0.18,4.4-0.55
					s3.66-0.67,5.86-0.92c10.74-1.47,16.12-4.63,16.12-9.52c0-3.66-1.89-6.05-5.68-7.14c-3.79-1.1-7.27-1.65-10.44-1.65
					c-3.42,0-6.47,0.49-9.16,1.47s-4.64,2.81-5.86,5.49h-24.54c0.97-7.56,4.4-13.79,10.26-18.68c6.59-5.61,15.99-8.42,28.2-8.42
					c13.67,0,23.93,2.32,30.77,6.96c7.08,4.89,10.62,11.72,10.62,20.51v33.33c0,9.77-1.77,17.4-5.31,22.89s-7.75,9.46-12.64,11.9
					L373.27,820.26z M367.41,775.21c-3.42,1.71-8.19,3.3-14.29,4.76l-8.42,1.83c-4.4,1.22-7.57,2.81-9.52,4.76
					c-1.71,2.69-2.56,5.38-2.56,8.06c0,3.66,1.1,6.59,3.3,8.79c2.2,1.96,5.37,2.93,9.52,2.93c6.83,0,12.21-1.95,16.12-5.86
					c3.9-3.9,5.86-9.28,5.86-16.12L367.41,775.21L367.41,775.21z"/>
			</g>
			<g>
				<path class="st1" d="M402.61,824.29V720.63h-37.36v-9.16c0-3.66,1.28-6.78,3.85-9.34c2.56-2.56,5.68-3.85,9.34-3.85h87.18
					v22.34h-37v103.66L402.61,824.29L402.61,824.29z"/>
				<path class="st1" d="M440.37,824.29v-47.25c0-9.52,1.4-17.52,4.21-23.99c2.8-6.47,6.65-11.66,11.54-15.57
					c4.63-3.66,10.07-6.35,16.3-8.06c6.23-1.71,12.64-2.57,19.23-2.57h3.66v26.01h-8.42c-7.09,0-12.33,1.71-15.75,5.13
					c-3.42,3.43-5.13,8.79-5.13,16.12v50.18H440.37z"/>
				<path class="st1" d="M560.14,820.26c-5.13,2.69-10.56,4.33-16.3,4.94s-10.8,0.92-15.2,0.92c-8.79,0-16.48-2.38-23.08-7.14
					c-6.59-4.76-9.89-12.64-9.89-23.63c0-10.26,2.99-17.58,8.97-21.98c5.98-4.4,13.61-7.33,22.89-8.79c1.22,0,2.69-0.18,4.4-0.55
					s3.66-0.67,5.86-0.92c10.74-1.47,16.12-4.63,16.12-9.52c0-3.66-1.89-6.05-5.68-7.14c-3.79-1.1-7.27-1.65-10.44-1.65
					c-3.42,0-6.47,0.49-9.16,1.47s-4.64,2.81-5.86,5.49h-24.54c0.97-7.56,4.4-13.79,10.26-18.68c6.59-5.61,15.99-8.42,28.2-8.42
					c13.67,0,23.93,2.32,30.77,6.96c7.08,4.89,10.62,11.72,10.62,20.51v33.33c0,9.77-1.77,17.4-5.31,22.89
					S565.02,817.81,560.14,820.26L560.14,820.26z M554.28,775.21c-3.42,1.71-8.19,3.3-14.29,4.76l-8.42,1.83
					c-4.4,1.22-7.57,2.81-9.52,4.76c-1.71,2.69-2.56,5.38-2.56,8.06c0,3.66,1.1,6.59,3.3,8.79c2.2,1.96,5.37,2.93,9.52,2.93
					c6.83,0,12.21-1.95,16.12-5.86c3.9-3.9,5.86-9.28,5.86-16.12v-9.16L554.28,775.21z"/>
				<path class="st1" d="M653.27,794.25h18.31c-2.69,10.26-7.82,18.08-15.38,23.45c-7.57,5.62-17.1,8.42-28.57,8.42
					c-13.92,0-24.79-4.52-32.6-13.55c-7.82-8.79-11.72-21.36-11.72-37.73s3.78-27.84,11.35-36.63c7.81-9.03,18.68-13.55,32.6-13.55
					c14.65,0,26.01,4.4,34.06,13.19c4.4,5.37,7.57,11.6,9.52,18.68H645.2c-1.22-2.44-2.44-4.27-3.66-5.49
					c-3.17-3.42-7.69-5.13-13.55-5.13c-5.37,0-9.77,1.71-13.18,5.13c-4.4,4.89-6.59,12.95-6.59,24.17s2.2,19.17,6.59,23.81
					c3.17,3.91,7.93,5.86,14.29,5.86c4.15,0,7.69-0.85,10.62-2.57c0.73-0.24,1.4-0.67,2.01-1.28c0.61-0.61,1.28-1.28,2.01-2.01
					c0.49-0.73,1.47-1.71,2.93-2.93C648.14,794.87,650.33,794.26,653.27,794.25L653.27,794.25z"/>
				<path class="st1" d="M701.25,726.86v35.9l31.13-35.9h30.77l-34.8,37.36l35.16,60.07h-30.77l-17.95-32.96
					c-3.66-6.59-6.84-9.4-9.52-8.43c-2.69,0.98-4.03,2.45-4.03,4.4v37H675.6v-126h13.18c3.42,0,6.35,1.23,8.79,3.66
					c2.44,2.45,3.66,5.26,3.66,8.42v16.48L701.25,726.86z"/>
				<path class="st1" d="M820.68,794.25h18.31c-2.69,10.26-7.82,18.08-15.38,23.45c-7.57,5.62-17.1,8.42-28.57,8.42
					c-13.92,0-24.79-4.52-32.6-13.55c-7.82-8.79-11.72-21.36-11.72-37.73s3.78-27.84,11.35-36.63c7.81-9.03,18.68-13.55,32.6-13.55
					c14.65,0,26.01,4.4,34.06,13.19c7.81,9.04,11.72,21.61,11.72,37.73v4.03c0,1.22-0.13,2.08-0.37,2.56h-63.36
					c0.24,7.57,2.07,13.19,5.49,16.85c3.17,3.91,7.93,5.86,14.29,5.86c4.15,0,7.69-0.85,10.62-2.57c0.73-0.24,1.4-0.67,2.01-1.28
					c0.61-0.61,1.28-1.28,2.01-2.01c0.24-0.73,1.16-1.71,2.75-2.93s3.85-1.83,6.78-1.83L820.68,794.25z M776.73,765.68h37.36
					c-0.49-6.59-2.2-11.48-5.13-14.65c-3.17-3.42-7.69-5.13-13.55-5.13c-5.37,0-9.77,1.71-13.18,5.13
					c-3.42,3.42-5.26,8.3-5.49,14.65H776.73z"/>
				<path class="st1" d="M844.48,824.29v-47.25c0-9.52,1.4-17.52,4.21-23.99c2.8-6.47,6.65-11.66,11.54-15.57
					c4.63-3.66,10.07-6.35,16.3-8.06s12.64-2.57,19.23-2.57h3.66v26.01H891c-7.09,0-12.33,1.71-15.75,5.13
					c-3.42,3.43-5.13,8.79-5.13,16.12v50.18H844.48L844.48,824.29z"/>
			</g>
		</g>
		<g>
			<g>
				<g>
					<path class="st1" d="M722.1,452.29c-0.29-58.2-47.72-105.46-105.98-105.46c-35.41,0-66.78,17.47-86.04,44.22
						c-5.15-2.02-10.44-3.66-15.82-4.93c-3.43-10.77-13.52-18.59-25.41-18.59s-21.78,7.68-25.3,18.29
						c-5.39,1.2-10.7,2.77-15.87,4.72c-19.28-26.47-50.49-43.72-85.67-43.72c-58.45,0-106,47.55-106,106c0,0.57,0.03,1.14,0.04,1.7
						c0,0.09-0.04,0.16-0.04,0.25c-0.18,2.52-0.13,4.87-0.08,6.95c0.02,0.84,0.04,1.69,0.04,2.53c0,64.73,47.28,142.9,106,142.9
						s106-59.11,106-126.5v-3.16c0-14.72,11.11-18.97,21.39-18.97h0.02c8.02,0,20.74,5.27,20.74,18.96v3.18
						c0,67.39,49.53,126.5,106,126.5s106-78.18,106-142.9c0-1.14,0.04-2.28,0.07-3.41C722.27,458.28,722.35,455.37,722.1,452.29
						L722.1,452.29z M362.01,531.49c-43.37,0-78.66-35.29-78.66-78.66s35.28-78.66,78.66-78.66s78.66,35.29,78.66,78.66
						S405.39,531.49,362.01,531.49z M616.12,531.49c-43.37,0-78.66-35.29-78.66-78.66s35.28-78.66,78.66-78.66
						s78.66,35.29,78.66,78.66S659.5,531.49,616.12,531.49z"/>
					<circle class="st0" cx="488.85" cy="394.21" r="15.55"/>
				</g>
				<path class="st1" d="M616.45,641.34c-23.74,0-46.57-8.61-64.28-24.26c-3.86-3.41-4.22-9.29-0.81-13.15
					c3.4-3.85,9.29-4.23,13.15-0.81c14.3,12.63,32.75,19.59,51.94,19.59c17.45,0,35.93-7.77,52.03-21.89
					c3.88-3.4,9.76-3,13.15,0.87s3,9.76-0.87,13.15c-19.51,17.1-42.34,26.51-64.31,26.51L616.45,641.34z"/>
				<path class="st1" d="M361.62,641.34c-22.03,0-44.86-9.44-64.28-26.58c-3.86-3.41-4.23-9.3-0.82-13.15
					c3.41-3.86,9.29-4.23,13.15-0.82c16.02,14.14,34.47,21.92,51.95,21.92c19.16,0,37.64-6.95,52.02-19.56
					c3.88-3.4,9.76-3,13.15,0.86c3.39,3.87,3,9.76-0.86,13.15C408.14,632.76,385.3,641.34,361.62,641.34L361.62,641.34z"/>
			</g>
			<path class="st2" d="M801.74,355.29c-93.23-64.17-172.63-145.37-246-232.01c-31.31-36.97-55.95-55.09-89.52-12.9
				c-17.17,21.59-35.09,43.98-55.21,66.6c0.47-21.25,0.01-42.32-1.49-63.55c-2.48-34.97-46.13-32.17-38.37,23.18
				c3.49,24.86,5.12,50.55,5.39,76.83c-45.83,45.4-103.67,90.48-185.38,130.69c-94.7,46.61-17.57,61.68,28.91,32.3
				c103.17-65.21,194.66-138.24,254.12-242.45c21.24-37.23,32.5-30.52,64.44,16.14c70.45,102.9,141.93,181.97,234.33,254.37
				c42.02,32.93,100.71,0.3,28.78-49.18L801.74,355.29z"/>
		</g>
	</g>
</g>
</svg>
